<mxfile host="65bd71144e">
    <diagram id="4TyZ1nQEJG6D5f2YVXkp" name="Page-1">
        <mxGraphModel dx="707" dy="528" grid="1" gridSize="10" guides="1" tooltips="1" connect="1" arrows="1" fold="1" page="1" pageScale="1" pageWidth="850" pageHeight="1100" math="0" shadow="0">
            <root>
                <mxCell id="0"/>
                <mxCell id="1" parent="0"/>
                <mxCell id="2" value="Login Page" style="verticalLabelPosition=bottom;verticalAlign=top;html=1;shape=mxgraph.basic.rect;fillColor2=none;strokeWidth=1;size=20;indent=5;rotation=90;" vertex="1" parent="1">
                    <mxGeometry x="20" y="100" width="190" height="110" as="geometry"/>
                </mxCell>
                <mxCell id="3" value="Home Page&lt;br&gt;" style="verticalLabelPosition=bottom;verticalAlign=top;html=1;shape=mxgraph.basic.rect;fillColor2=none;strokeWidth=1;size=20;indent=5;rotation=90;" vertex="1" parent="1">
                    <mxGeometry x="330" y="100" width="190" height="110" as="geometry"/>
                </mxCell>
                <mxCell id="4" value="Register Page" style="verticalLabelPosition=bottom;verticalAlign=top;html=1;shape=mxgraph.basic.rect;fillColor2=none;strokeWidth=1;size=55;indent=90.91;rotation=90;" vertex="1" parent="1">
                    <mxGeometry x="15" y="395" width="200" height="110" as="geometry"/>
                </mxCell>
                <mxCell id="5" value="" style="shape=singleArrow;whiteSpace=wrap;html=1;rotation=-90;" vertex="1" parent="1">
                    <mxGeometry x="70" y="280" width="60" height="40" as="geometry"/>
                </mxCell>
                <mxCell id="6" value="" style="shape=singleArrow;whiteSpace=wrap;html=1;rotation=90;" vertex="1" parent="1">
                    <mxGeometry x="110" y="280" width="60" height="40" as="geometry"/>
                </mxCell>
                <mxCell id="7" value="" style="shape=singleArrow;whiteSpace=wrap;html=1;rotation=0;arrowWidth=0.4;arrowSize=0.21666666666666692;" vertex="1" parent="1">
                    <mxGeometry x="190" y="150" width="140" height="40" as="geometry"/>
                </mxCell>
            </root>
        </mxGraphModel>
    </diagram>
</mxfile>